<svg width="136" height="136" viewBox="0 0 136 136" fill="none" xmlns="http://www.w3.org/2000/svg">
<g clip-path="url(#clip0_37_71)">
<mask id="mask0_37_71" style="mask-type:luminance" maskUnits="userSpaceOnUse" x="0" y="0" width="136" height="136">
<path d="M136 0H0V136H136V0Z" fill="white"/>
</mask>
<g mask="url(#mask0_37_71)">
<path d="M67.9281 130.652C102.626 130.652 130.754 102.524 130.754 67.826C130.754 33.1281 102.626 5 67.9281 5C33.2302 5 5.10205 33.1281 5.10205 67.826C5.10205 102.524 33.2302 130.652 67.9281 130.652Z" fill="#6366F1" stroke="#6366F1" stroke-width="10"/>
<path d="M34.5891 112.022C43.1182 120.56 54.9062 125.842 67.9279 125.842C80.9497 125.842 92.7369 120.56 101.267 112.022H34.5891Z" fill="#121218"/>
<path d="M90.6082 63.3303H45.2477C40.6709 63.3303 36.9604 59.6199 36.9604 55.0433V41.7362C36.9604 37.1596 40.6709 33.4492 45.2477 33.4492H90.6082C95.1848 33.4492 98.8954 37.1596 98.8954 41.7362V55.0433C98.8954 59.6199 95.1848 63.3303 90.6082 63.3303Z" fill="#121218"/>
<path d="M87.8204 81.359H48.0347V112.022H87.8204V81.359Z" fill="#8C5C53"/>
<path d="M76.1718 101.577C87.7674 97.0209 93.474 83.9276 88.9179 72.3325C84.3618 60.7374 71.2684 55.0312 59.6728 59.5875C48.0773 64.1437 42.3707 77.237 46.9267 88.8321C51.4828 100.427 64.5763 106.133 76.1718 101.577Z" fill="#7F514B"/>
<path d="M97.5955 66.2078H38.2604C35.7879 66.2078 33.7832 64.2031 33.7832 61.7306V61.3451C33.7832 58.8726 35.7879 56.8679 38.2604 56.8679H97.5955C100.068 56.8679 102.073 58.8726 102.073 61.3451V61.7306C102.073 64.2039 100.068 66.2078 97.5955 66.2078Z" fill="#8C5C53"/>
<path d="M80.046 94.3596H55.8099C48.1064 94.3596 41.8616 88.1148 41.8616 80.4112V45.2975C41.8616 31.4958 53.0506 20.3068 66.8522 20.3068H69.0045C82.8061 20.3068 93.9951 31.4958 93.9951 45.2975V80.4112C93.9951 88.1148 87.7495 94.3596 80.046 94.3596Z" fill="#A56F62"/>
<path d="M73.4188 44.8811H36.9604V40.4764C36.9604 26.4066 48.3662 15 62.4368 15H98.8954V19.4047C98.8954 33.4753 87.4894 44.8811 73.4188 44.8811Z" fill="#121218"/>
<path d="M68.3622 36.9428H36.9604V39.9915H68.3622C80.481 39.9915 90.305 30.1675 90.305 18.0487V15C90.305 27.1188 80.481 36.9428 68.3622 36.9428Z" fill="#3C3C5B"/>
<path d="M56.3704 61.3957C58.0555 61.3957 59.4215 60.0296 59.4215 58.3446C59.4215 56.6595 58.0555 55.2935 56.3704 55.2935C54.6854 55.2935 53.3193 56.6595 53.3193 58.3446C53.3193 60.0296 54.6854 61.3957 56.3704 61.3957Z" fill="#121218"/>
<path d="M79.4852 61.3957C81.1703 61.3957 82.5363 60.0296 82.5363 58.3446C82.5363 56.6595 81.1703 55.2935 79.4852 55.2935C77.8001 55.2935 76.4341 56.6595 76.4341 58.3446C76.4341 60.0296 77.8001 61.3957 79.4852 61.3957Z" fill="#121218"/>
<path d="M84.5845 49.6868L79.2964 48.021C78.1376 47.656 76.9021 48.2997 76.537 49.4586C76.172 50.6174 76.8158 51.8528 77.9746 52.2179L83.2627 53.8837C84.4215 54.2488 85.6569 53.6049 86.022 52.4461C86.3871 51.2881 85.7433 50.0519 84.5845 49.6868Z" fill="#121218"/>
<path d="M56.5598 48.022L51.2717 49.6878C50.1129 50.0528 49.4691 51.2883 49.8342 52.4471C50.1992 53.6059 51.4347 54.2497 52.5935 53.8846L57.8816 52.2189C59.0404 51.8538 59.6842 50.6184 59.3191 49.4596C58.9541 48.2999 57.7186 47.6569 56.5598 48.022Z" fill="#121218"/>
<path d="M67.9278 89.8889C71.2309 89.8889 73.9086 88.768 73.9086 87.3854C73.9086 86.0028 71.2309 84.882 67.9278 84.882C64.6247 84.882 61.947 86.0028 61.947 87.3854C61.947 88.768 64.6247 89.8889 67.9278 89.8889Z" fill="#8C5C53"/>
<path d="M65.3325 67.8882C64.7156 67.8882 64.2161 68.3877 64.2161 69.0046C64.2161 69.6215 64.7164 70.1211 65.3325 70.1211C65.9494 70.1211 66.449 69.6207 66.449 69.0046C66.449 68.3877 65.9494 67.8882 65.3325 67.8882Z" fill="#7F514B"/>
<path d="M70.5237 67.8882C69.9068 67.8882 69.4072 68.3877 69.4072 69.0046C69.4072 69.6215 69.9076 70.1211 70.5237 70.1211C71.1406 70.1211 71.6401 69.6207 71.6401 69.0046C71.6401 68.3877 71.1406 67.8882 70.5237 67.8882Z" fill="#7F514B"/>
<path d="M74.5763 70.9735L75.1908 71.4568C74.8754 71.8349 70.5921 76.7383 61.7509 75.9984L62.5007 75.3391L61.9628 74.7279L59.8342 76.6006L60.7339 76.7123C61.7452 76.8378 62.7012 76.8948 63.6049 76.8948C71.6524 76.8948 75.4785 72.4013 75.833 71.962L76.7449 72.68C76.7449 72.68 76.991 70.3395 74.5763 70.9735Z" fill="#8C5C53"/>
<path d="M68.3613 67.7766H67.4934C66.2726 67.7766 65.2825 66.7864 65.2825 65.5657V59.5442C65.2825 58.3234 66.2726 57.3333 67.4934 57.3333H68.3613C69.582 57.3333 70.5722 58.3226 70.5722 59.5442V65.5657C70.5722 66.7864 69.5829 67.7766 68.3613 67.7766Z" fill="#B57A6F"/>
<path d="M96.99 67.7757C97.856 67.7757 98.558 67.0738 98.558 66.2078C98.558 65.3419 97.856 64.6399 96.99 64.6399C96.1241 64.6399 95.4221 65.3419 95.4221 66.2078C95.4221 67.0738 96.1241 67.7757 96.99 67.7757Z" fill="#FFD45A"/>
</g>
</g>
<defs>
<clipPath id="clip0_37_71">
<rect width="136" height="136" fill="white"/>
</clipPath>
</defs>
</svg>
