<svg width="137" height="136" viewBox="0 0 137 136" fill="none" xmlns="http://www.w3.org/2000/svg">
<g clip-path="url(#clip0_37_235)">
<mask id="mask0_37_235" style="mask-type:luminance" maskUnits="userSpaceOnUse" x="0" y="0" width="137" height="136">
<path d="M137 0H0V136H137V0Z" fill="white"/>
</mask>
<g mask="url(#mask0_37_235)">
<path d="M68.546 130.652C103.244 130.652 131.372 102.524 131.372 67.826C131.372 33.1281 103.244 5 68.546 5C33.8481 5 5.71997 33.1281 5.71997 67.826C5.71997 102.524 33.8481 130.652 68.546 130.652Z" fill="#EC4899" stroke="#EC4899" stroke-width="10"/>
<path d="M100.603 46.201H36.6877V98.9924H100.603V46.201Z" fill="#121218"/>
<path d="M100.5 54C109.06 54 116 46.8365 116 38C116 29.1634 109.06 22 100.5 22C91.9396 22 85 29.1634 85 38C85 46.8365 91.9396 54 100.5 54Z" fill="#121218"/>
<path d="M101.032 43.1994C101.235 38.3511 97.4683 34.2566 92.62 34.0543C87.7716 33.8519 83.6772 37.6183 83.4748 42.4666C83.2724 47.315 87.0388 51.4094 91.8872 51.6118C96.7355 51.8142 100.83 48.0478 101.032 43.1994Z" fill="#EC4899"/>
<path d="M84.0254 39.8414C85.4938 42.6444 88.4254 44.5593 91.8087 44.5593C95.6083 44.5593 98.8344 42.1431 100.061 38.7674C98.5922 35.9644 95.6605 34.0495 92.2772 34.0495C88.4776 34.0495 85.2507 36.4656 84.0254 39.8414Z" fill="#EC4899"/>
<path d="M38 54C46.8366 54 54 46.8365 54 38C54 29.1634 46.8366 22 38 22C29.1635 22 22 29.1634 22 38C22 46.8365 29.1635 54 38 54Z" fill="#121218"/>
<path d="M54.737 44.2153C55.5018 39.4232 52.237 34.9185 47.4449 34.1537C42.6528 33.3889 38.1481 36.6536 37.3833 41.4457C36.6185 46.2378 39.8833 50.7425 44.6754 51.5073C49.4674 52.2721 53.9722 49.0074 54.737 44.2153Z" fill="#EC4899"/>
<path d="M54.3166 39.8414C52.8483 42.6444 49.9166 44.5593 46.5333 44.5593C42.7337 44.5593 39.5077 42.1431 38.2815 38.7674C39.7499 35.9644 42.6816 34.0495 46.0649 34.0495C49.8645 34.0495 53.0913 36.4656 54.3166 39.8414Z" fill="#EC4899"/>
<path d="M97.6177 56.4988C100.244 40.4896 89.3955 25.3824 73.3863 22.7558C57.3771 20.1292 42.2698 30.978 39.6433 46.9872C37.0167 62.9964 47.8655 78.1036 63.8747 80.7302C79.8839 83.3568 94.9911 72.508 97.6177 56.4988Z" fill="#121218"/>
<path d="M34.1782 111.844C42.98 120.656 55.145 126.106 68.5831 126.106C82.0213 126.106 94.1862 120.655 102.988 111.844H34.1782Z" fill="#121218"/>
<path d="M68.5822 121.512C78.7279 121.512 86.9519 116.826 86.9519 111.045C86.9519 109.99 86.6719 108.972 86.1622 108.013L69.1397 104.032L50.8701 108.304C50.4538 109.178 50.2124 110.094 50.2124 111.045C50.2132 116.826 58.4373 121.512 68.5822 121.512Z" fill="#A56F62"/>
<path d="M96.6764 74.56H40.4898C37.9382 74.56 35.8694 72.4911 35.8694 69.9396V69.5418C35.8694 66.9902 37.9382 64.9214 40.4898 64.9214H96.6764C99.2279 64.9214 101.297 66.9902 101.297 69.5418V69.9396C101.296 72.4911 99.2279 74.56 96.6764 74.56Z" fill="#8C5C53"/>
<path d="M68.5822 56.6545C58.4365 56.6545 50.2124 64.8785 50.2124 75.0242V111.844H86.9519V75.0242C86.9519 64.8785 78.7279 56.6545 68.5822 56.6545Z" fill="#A56F62"/>
<path d="M50.2134 94.6025V103.382C53.5168 106.762 60.5164 109.095 68.6185 109.095C76.6651 109.095 83.6217 106.793 86.9529 103.451V94.5335C83.6217 91.1897 76.6651 88.8888 68.6185 88.8888C60.5164 88.8896 53.5159 91.2217 50.2134 94.6025Z" fill="#8C5C53"/>
<path d="M68.5824 105.626C62.4104 105.626 44.2046 98.7611 44.2046 83.9042L41.6816 52.9802C41.6816 38.7372 53.2284 27.1904 67.4714 27.1904H69.6933C83.9363 27.1904 95.4832 38.7372 95.4832 52.9802L92.9602 83.9042C92.9602 98.7611 77.3615 105.626 68.5824 105.626Z" fill="#A56F62"/>
<path d="M88.1243 50.7255H49.1662C46.6458 50.7255 44.603 48.6819 44.603 46.1623V44.4534C44.603 33.5836 53.4149 24.7717 64.2847 24.7717H73.0066C83.8764 24.7717 92.6883 33.5836 92.6883 44.4534V46.1623C92.6875 48.6819 90.6447 50.7255 88.1243 50.7255Z" fill="#121218"/>
<path d="M87.3415 41.7429H49.9485C47.7375 41.7429 45.9134 40.1029 45.6157 37.9735C45.5879 38.3949 45.5686 38.8187 45.5686 39.2477V40.8876C45.5686 43.3063 47.5298 45.2675 49.9485 45.2675H87.3415C89.7601 45.2675 91.7213 43.3063 91.7213 40.8876V39.2477C91.7213 38.8187 91.702 38.3957 91.6742 37.9735C91.3757 40.1029 89.5524 41.7429 87.3415 41.7429Z" fill="#3C3C5B"/>
<path d="M56.6552 64.7978C54.9161 64.7978 53.5066 66.2073 53.5066 67.9464C53.5066 69.6848 54.9161 71.0951 56.6552 71.0951C58.3944 71.0951 59.8031 69.6856 59.8031 67.9464C59.8039 66.2073 58.3944 64.7978 56.6552 64.7978Z" fill="#121218"/>
<path d="M80.5099 64.7978C78.7707 64.7978 77.3621 66.2073 77.3621 67.9464C77.3621 69.6848 78.7715 71.0951 80.5099 71.0951C82.249 71.0951 83.6586 69.6856 83.6586 67.9464C83.6577 66.2073 82.2482 64.7978 80.5099 64.7978Z" fill="#121218"/>
<path d="M82.9891 67.774L85.9654 64.7978H80.4275L82.9891 67.774Z" fill="#121218"/>
<path d="M53.6798 67.774L56.6553 64.7978H51.1182L53.6798 67.774Z" fill="#121218"/>
<path d="M85.7721 59.6543L80.3149 57.9353C79.119 57.5585 77.8441 58.2229 77.4673 59.4188C77.0905 60.6147 77.7549 61.8897 78.9508 62.2664L84.408 63.9854C85.6039 64.3621 86.8788 63.6978 87.2556 62.5019C87.6315 61.3068 86.968 60.0311 85.7721 59.6543Z" fill="#121218"/>
<path d="M56.8504 57.9363L51.3932 59.6553C50.1973 60.032 49.5329 61.307 49.9097 62.5029C50.2865 63.6987 51.5614 64.3631 52.7573 63.9864L58.2145 62.2674C59.4104 61.8906 60.0747 60.6157 59.698 59.4198C59.3212 58.2231 58.0463 57.5595 56.8504 57.9363Z" fill="#121218"/>
<path d="M68.5823 99.9941C71.9906 99.9941 74.7535 98.8374 74.7535 97.4105C74.7535 95.9837 71.9906 94.827 68.5823 94.827C65.1741 94.827 62.4111 95.9837 62.4111 97.4105C62.4111 98.8374 65.1741 99.9941 68.5823 99.9941Z" fill="#8C5C53"/>
<path d="M70.8495 79.3284H68.3324C66.5529 79.3284 65.1106 77.8861 65.1106 76.1066V66.3242C65.1106 64.5446 66.5529 63.1023 68.3324 63.1023H70.8495C72.6291 63.1023 74.0713 64.5446 74.0713 66.3242V76.1066C74.0713 77.8861 72.6291 79.3284 70.8495 79.3284Z" fill="#8C5C53"/>
<path d="M71.9715 76.7852C71.318 76.7852 70.7874 76.2554 70.7874 75.602V67.1921C70.7874 66.5386 71.3172 66.0088 71.9715 66.0088C72.6249 66.0088 73.1547 66.5386 73.1547 67.1921V75.602C73.1547 76.2554 72.6249 76.7852 71.9715 76.7852Z" fill="#A56F62"/>
<path d="M69.1727 90.3134C65.4387 90.3134 62.4111 87.2859 62.4111 83.5519V82.5334H75.9351V83.5519C75.9351 87.2859 72.9075 90.3134 69.1727 90.3134Z" fill="white"/>
<path d="M75.7585 85.0656C75.0706 85.1009 74.3819 85.1304 73.6939 85.1539C72.1869 85.2187 70.6798 85.2288 69.1736 85.238C67.6666 85.2389 66.1595 85.2254 64.6524 85.1682C63.9653 85.1422 63.2774 85.1119 62.5903 85.0757C62.6357 85.2733 62.6887 85.4684 62.7509 85.6602C63.3851 85.6282 64.0183 85.5996 64.6516 85.5752C66.1586 85.5181 67.6657 85.5046 69.1728 85.5055C70.6798 85.5147 72.1869 85.5248 73.6931 85.5896C74.3255 85.6114 74.9579 85.6392 75.5903 85.6703C75.6568 85.4726 75.7115 85.2708 75.7585 85.0656Z" fill="#3C3C5B"/>
</g>
</g>
<defs>
<clipPath id="clip0_37_235">
<rect width="137" height="136" fill="white"/>
</clipPath>
</defs>
</svg>
