<svg width="136" height="136" viewBox="0 0 136 136" fill="none" xmlns="http://www.w3.org/2000/svg">
<g clip-path="url(#clip0_37_2)">
<mask id="mask0_37_2" style="mask-type:luminance" maskUnits="userSpaceOnUse" x="0" y="0" width="136" height="136">
<path d="M136 0H0V136H136V0Z" fill="white"/>
</mask>
<g mask="url(#mask0_37_2)">
<path d="M67.9281 130.652C102.626 130.652 130.754 102.524 130.754 67.826C130.754 33.1282 102.626 5 67.9281 5C33.2302 5 5.10205 33.1282 5.10205 67.826C5.10205 102.524 33.2302 130.652 67.9281 130.652Z" fill="#14B8A6" stroke="#14B8A6" stroke-width="10"/>
<path d="M92.234 59.5662H43.6221C36.1789 59.5662 30.1443 53.5324 30.1443 46.0883C30.1443 38.6452 36.178 32.6115 43.6221 32.6115H92.234C99.6771 32.6115 105.712 38.6452 105.712 46.0883C105.712 53.5324 99.6771 59.5662 92.234 59.5662Z" fill="#A1BDC6"/>
<path d="M97.5848 43.9462H38.2708C36.0113 43.9462 34.179 42.1139 34.179 39.8544C34.179 37.5948 36.0104 35.7625 38.2708 35.7625H97.5848C99.8444 35.7625 101.677 37.5948 101.677 39.8544C101.677 42.1148 99.8444 43.9462 97.5848 43.9462Z" fill="#BADDE5"/>
<path d="M32.6196 111.135C41.6526 120.177 54.137 125.771 67.9281 125.771C81.7192 125.771 94.2027 120.177 103.237 111.135H32.6196Z" fill="#121218"/>
<path d="M67.928 118.452C83.1751 118.452 95.5352 115.982 95.5352 112.935C95.5352 109.888 83.1751 107.419 67.928 107.419C52.681 107.419 40.3208 109.888 40.3208 112.935C40.3208 115.982 52.681 118.452 67.928 118.452Z" fill="#121218"/>
<path d="M67.928 105.218C83.1751 105.218 95.5352 102.749 95.5352 99.7017C95.5352 96.6549 83.1751 94.1849 67.928 94.1849C52.681 94.1849 40.3208 96.6549 40.3208 99.7017C40.3208 102.749 52.681 105.218 67.928 105.218Z" fill="#6161A3"/>
<path d="M99.3482 62.6136H36.5076C33.889 62.6136 31.7659 60.4905 31.7659 57.8719V57.4637C31.7659 54.8451 33.889 52.7219 36.5076 52.7219H99.3482C101.967 52.7219 104.09 54.8451 104.09 57.4637V57.8719C104.09 60.4905 101.967 62.6136 99.3482 62.6136Z" fill="#D88D87"/>
<path d="M68.8772 24.0461H66.9785C54.8005 24.0461 44.9277 33.9188 44.9277 46.0968V106.472H90.928V46.0968C90.928 33.9188 81.0552 24.0461 68.8772 24.0461Z" fill="#D88D87"/>
<path d="M67.928 101.497C52.6809 101.497 40.3208 89.1368 40.3208 73.8897V40.4671C40.3208 25.85 52.1708 14 66.7879 14H69.0673C83.6843 14 95.5344 25.85 95.5344 40.4671V73.8897C95.5352 89.1368 83.1751 101.497 67.928 101.497Z" fill="#FFB692"/>
<path d="M61.8802 70.043C64.6844 69.331 68.5837 68.1425 72.1992 66.3516C74.5769 65.1735 77.0169 68.108 75.9648 70.9234C74.8445 73.9191 72.6523 76.8328 68.3913 77.6113C64.8993 78.2491 62.5646 77.5311 61.0085 76.3599C58.8051 74.7019 59.3808 70.6765 61.8802 70.043Z" fill="#121218"/>
<path d="M68.3903 77.6104C72.6514 76.8319 74.8436 73.9181 75.9638 70.9224C76.1218 70.5003 76.1926 70.0766 76.2055 69.664C74.6157 69.1185 72.5556 69.0297 69.8843 69.8781C65.7588 71.1891 63.9757 74.3514 63.2663 77.4602C63.2645 77.4662 63.2645 77.4723 63.2637 77.4783C64.6101 77.8805 66.287 77.9944 68.3903 77.6104Z" fill="#FF9292"/>
<path d="M66.0103 74.2937C66.5005 74.9789 68.1144 74.7105 69.6145 73.693C71.1145 72.6754 71.9335 71.2945 71.4433 70.6083C70.9531 69.923 69.34 70.1915 67.8391 71.209C66.3391 72.2266 65.52 73.6075 66.0103 74.2937Z" fill="#FFABAB"/>
<path d="M61.8803 70.0431C64.6845 69.331 68.5839 68.1426 72.1993 66.3517C73.6596 65.6276 75.1398 66.4578 75.8242 67.8569C73.8055 70.0267 70.5922 71.9289 66.7334 73.0051C64.259 73.6956 61.8363 73.9562 59.664 73.8423C59.4957 72.1895 60.3044 70.4427 61.8803 70.0431Z" fill="white"/>
<path d="M55.6876 51.0553C53.9028 51.0553 52.4563 52.5018 52.4563 54.2858C52.4563 56.0698 53.9028 57.5171 55.6876 57.5171C57.4716 57.5171 58.919 56.0706 58.919 54.2858C58.9181 52.501 57.4716 51.0553 55.6876 51.0553Z" fill="#121218"/>
<path d="M80.168 51.0553C78.384 51.0553 76.9375 52.5018 76.9375 54.2858C76.9375 56.0698 78.384 57.5171 80.168 57.5171C81.9528 57.5171 83.3985 56.0706 83.3985 54.2858C83.3993 52.501 81.9528 51.0553 80.168 51.0553Z" fill="#121218"/>
<path d="M69.219 67.7066H66.6358C64.8095 67.7066 63.3293 66.2265 63.3293 64.4002V54.3609C63.3293 52.5346 64.8095 51.0544 66.6358 51.0544H69.219C71.0453 51.0544 72.5254 52.5346 72.5254 54.3609V64.4002C72.5254 66.2265 71.0453 67.7066 69.219 67.7066Z" fill="#D88D87"/>
<path d="M85.5684 45.1165L79.9679 43.3523C78.7406 42.9657 77.4322 43.6475 77.0455 44.8748C76.6589 46.1021 77.3407 47.4105 78.568 47.7972L84.1685 49.5613C85.3958 49.948 86.7042 49.2661 87.0909 48.0388C87.4775 46.8116 86.7957 45.5031 85.5684 45.1165Z" fill="#A1BDC6"/>
<path d="M55.888 43.3523L50.2875 45.1165C49.0602 45.5031 48.3783 46.8116 48.765 48.0388C49.1517 49.2661 50.4601 49.948 51.6874 49.5613L57.2879 47.7972C58.5152 47.4105 59.197 46.1021 58.8104 44.8748C58.4237 43.6475 57.1153 42.9657 55.888 43.3523Z" fill="#A1BDC6"/>
<path d="M74.262 85.0424C74.262 86.5071 71.4259 87.6938 67.9279 87.6938C64.4298 87.6938 61.5938 86.5071 61.5938 85.0424C61.5938 83.5778 64.4298 82.3911 67.9279 82.3911C71.4259 82.3911 74.262 83.5778 74.262 85.0424Z" fill="#D88D87"/>
<path d="M99.3482 62.6136H36.5076C33.889 62.6136 31.7659 60.4905 31.7659 57.8719V57.4637C31.7659 54.8451 33.889 52.7219 36.5076 52.7219H99.3482C101.967 52.7219 104.09 54.8451 104.09 57.4637V57.8719C104.09 60.4905 101.967 62.6136 99.3482 62.6136Z" fill="#D88D87"/>
<path d="M67.928 101.497C52.6809 101.497 40.3208 89.1368 40.3208 73.8897V40.4671C40.3208 25.85 52.1708 14 66.7879 14H69.0673C83.6843 14 95.5344 25.85 95.5344 40.4671V73.8897C95.5352 89.1368 83.1751 101.497 67.928 101.497Z" fill="#FFB692"/>
<path d="M61.8802 70.043C64.6844 69.331 68.5837 68.1425 72.1992 66.3516C74.5769 65.1735 77.0169 68.108 75.9648 70.9234C74.8445 73.9191 72.6523 76.8328 68.3913 77.6113C64.8993 78.2491 62.5646 77.5311 61.0085 76.3599C58.8051 74.7019 59.3808 70.6765 61.8802 70.043Z" fill="#121218"/>
<path d="M68.3903 77.6104C72.6514 76.8319 74.8436 73.9181 75.9638 70.9224C76.1218 70.5003 76.1926 70.0766 76.2055 69.664C74.6157 69.1185 72.5556 69.0297 69.8843 69.8781C65.7588 71.1891 63.9757 74.3514 63.2663 77.4602C63.2645 77.4662 63.2645 77.4723 63.2637 77.4783C64.6101 77.8805 66.287 77.9944 68.3903 77.6104Z" fill="#FF9292"/>
<path d="M66.0103 74.2937C66.5005 74.9789 68.1144 74.7105 69.6145 73.693C71.1145 72.6754 71.9335 71.2945 71.4433 70.6083C70.9531 69.923 69.34 70.1915 67.8391 71.209C66.3391 72.2266 65.52 73.6075 66.0103 74.2937Z" fill="#FFABAB"/>
<path d="M61.8803 70.0431C64.6845 69.331 68.5839 68.1426 72.1993 66.3517C73.6596 65.6276 75.1398 66.4578 75.8242 67.8569C73.8055 70.0267 70.5922 71.9289 66.7334 73.0051C64.259 73.6956 61.8363 73.9562 59.664 73.8423C59.4957 72.1895 60.3044 70.4427 61.8803 70.0431Z" fill="white"/>
<path d="M55.6876 51.0553C53.9028 51.0553 52.4563 52.5018 52.4563 54.2858C52.4563 56.0698 53.9028 57.5171 55.6876 57.5171C57.4716 57.5171 58.919 56.0706 58.919 54.2858C58.9181 52.501 57.4716 51.0553 55.6876 51.0553Z" fill="#121218"/>
<path d="M80.168 51.0553C78.384 51.0553 76.9375 52.5018 76.9375 54.2858C76.9375 56.0698 78.384 57.5171 80.168 57.5171C81.9528 57.5171 83.3985 56.0706 83.3985 54.2858C83.3993 52.501 81.9528 51.0553 80.168 51.0553Z" fill="#121218"/>
<path d="M69.219 67.7066H66.6358C64.8095 67.7066 63.3293 66.2265 63.3293 64.4002V54.3609C63.3293 52.5346 64.8095 51.0544 66.6358 51.0544H69.219C71.0453 51.0544 72.5254 52.5346 72.5254 54.3609V64.4002C72.5254 66.2265 71.0453 67.7066 69.219 67.7066Z" fill="#D88D87"/>
<path d="M85.5684 45.1165L79.9679 43.3523C78.7406 42.9657 77.4322 43.6475 77.0455 44.8748C76.6589 46.1021 77.3407 47.4105 78.568 47.7972L84.1685 49.5613C85.3958 49.948 86.7042 49.2661 87.0909 48.0388C87.4775 46.8116 86.7957 45.5031 85.5684 45.1165Z" fill="#A1BDC6"/>
<path d="M55.888 43.3523L50.2875 45.1165C49.0602 45.5031 48.3783 46.8116 48.765 48.0388C49.1517 49.2661 50.4601 49.948 51.6874 49.5613L57.2879 47.7972C58.5152 47.4105 59.197 46.1021 58.8104 44.8748C58.4237 43.6475 57.1153 42.9657 55.888 43.3523Z" fill="#A1BDC6"/>
<path d="M74.262 85.0424C74.262 86.5071 71.4259 87.6938 67.9279 87.6938C64.4298 87.6938 61.5938 86.5071 61.5938 85.0424C61.5938 83.5778 64.4298 82.3911 67.9279 82.3911C71.4259 82.3911 74.262 83.5778 74.262 85.0424Z" fill="#D88D87"/>
<path d="M84.2307 36.1465H51.6254C51.1843 36.1465 50.8262 35.7883 50.8262 35.3473C50.8262 34.9063 51.1843 34.5481 51.6254 34.5481H84.2307C84.6717 34.5481 85.0299 34.9063 85.0299 35.3473C85.0299 35.7892 84.6717 36.1465 84.2307 36.1465Z" fill="#D88D87"/>
<path d="M77.1094 30.7127H58.7475C58.3064 30.7127 57.9482 30.3545 57.9482 29.9135C57.9482 29.4725 58.3064 29.1143 58.7475 29.1143H77.1094C77.5504 29.1143 77.9086 29.4725 77.9086 29.9135C77.9086 30.3554 77.5504 30.7127 77.1094 30.7127Z" fill="#D88D87"/>
<path d="M70.3708 65.0958C69.7002 65.0958 69.1562 64.5521 69.1562 63.8815V55.2507C69.1562 54.5801 69.7002 54.0364 70.3708 54.0364C71.0414 54.0364 71.5851 54.5801 71.5851 55.2507V63.8815C71.5851 64.5521 71.0414 65.0958 70.3708 65.0958Z" fill="#F79C97"/>
<path d="M67.928 105.219C52.6809 105.219 40.3208 102.748 40.3208 99.7018V112.298H95.5352V99.7018C95.5352 102.748 83.1751 105.219 67.928 105.219Z" fill="#121218"/>
</g>
</g>
<defs>
<clipPath id="clip0_37_2">
<rect width="136" height="136" fill="white"/>
</clipPath>
</defs>
</svg>
